<svg width="20.000000" height="20.000000" viewBox="0 0 20 20" xmlns="http://www.w3.org/2000/svg">
	<defs/>
	<path d="M18.88 20L1.11 20C0.81 20 0.53 19.89 0.32 19.7C0.11 19.51 0 19.26 0 19L0 1C0 0.73 0.11 0.48 0.32 0.29C0.53 0.1 0.81 0 1.11 0L18.88 0C19.18 0 19.46 0.1 19.67 0.29C19.88 0.48 20 0.73 20 1L20 19C20 19.26 19.88 19.51 19.67 19.7C19.46 19.89 19.18 20 18.88 20ZM17.77 18L17.77 2L2.22 2L2.22 18L17.77 18ZM4.44 4L8.88 4L8.88 8L4.44 8L4.44 4ZM4.44 10L15.55 10L15.55 12L4.44 12L4.44 10ZM4.44 14L15.55 14L15.55 16L4.44 16L4.44 14ZM11.11 5L15.55 5L15.55 7L11.11 7L11.11 5Z" fill="" fill-opacity="1.000000" fill-rule="nonzero"/>
</svg>
