<svg width="20.000000" height="20.000000" viewBox="0 0 20 20" fill="none" xmlns="http://www.w3.org/2000/svg"
>
	<defs>
		<clipPath id="clip287_45">
			<rect rx="0.000000" width="19.000000" height="19.000000" transform="translate(0.500000 0.500000)" fill="white" fill-opacity="0"/>
		</clipPath>
	</defs>
	<rect rx="0.000000" width="19.000000" height="19.000000" transform="translate(0.500000 0.500000)" fill="#FFFFFF" fill-opacity="0"/>
	<g clip-path="url(#clip287_45)">
		<path d="M17.91 3.33L16.11 3.33L16.11 4.44L17.77 4.44L17.77 16.66L2.22 16.66L2.22 4.44L3.88 4.44L3.88 3.33L2.08 3.33C1.95 3.33 1.82 3.36 1.7 3.41C1.58 3.46 1.47 3.54 1.38 3.63C1.29 3.72 1.22 3.83 1.17 3.95C1.13 4.07 1.1 4.2 1.11 4.33L1.11 16.77C1.1 16.9 1.13 17.03 1.17 17.15C1.22 17.27 1.29 17.38 1.38 17.47C1.47 17.56 1.58 17.64 1.7 17.69C1.82 17.74 1.95 17.77 2.08 17.77L17.91 17.77C18.04 17.77 18.17 17.74 18.29 17.69C18.41 17.64 18.52 17.56 18.61 17.47C18.7 17.38 18.77 17.27 18.81 17.15C18.86 17.03 18.89 16.9 18.88 16.77L18.88 4.33C18.89 4.2 18.86 4.07 18.81 3.95C18.77 3.83 18.7 3.72 18.61 3.63C18.52 3.54 18.41 3.46 18.29 3.41C18.17 3.36 18.04 3.33 17.91 3.33Z" fill="#000000" fill-opacity="1.000000" fill-rule="nonzero"/>
		<path d="M4.44 7.77L5.55 7.77L5.55 8.88L4.44 8.88L4.44 7.77Z" fill="#000000" fill-opacity="1.000000" fill-rule="nonzero"/>
		<path d="M7.77 7.77L8.88 7.77L8.88 8.88L7.77 8.88L7.77 7.77Z" fill="#000000" fill-opacity="1.000000" fill-rule="nonzero"/>
		<path d="M11.11 7.77L12.22 7.77L12.22 8.88L11.11 8.88L11.11 7.77Z" fill="#000000" fill-opacity="1.000000" fill-rule="nonzero"/>
		<path d="M14.44 7.77L15.55 7.77L15.55 8.88L14.44 8.88L14.44 7.77Z" fill="#000000" fill-opacity="1.000000" fill-rule="nonzero"/>
		<path d="M4.44 10.55L5.55 10.55L5.55 11.66L4.44 11.66L4.44 10.55Z" fill="#000000" fill-opacity="1.000000" fill-rule="nonzero"/>
		<path d="M7.77 10.55L8.88 10.55L8.88 11.66L7.77 11.66L7.77 10.55Z" fill="#000000" fill-opacity="1.000000" fill-rule="nonzero"/>
		<path d="M11.11 10.55L12.22 10.55L12.22 11.66L11.11 11.66L11.11 10.55Z" fill="#000000" fill-opacity="1.000000" fill-rule="nonzero"/>
		<path d="M14.44 10.55L15.55 10.55L15.55 11.66L14.44 11.66L14.44 10.55Z" fill="#000000" fill-opacity="1.000000" fill-rule="nonzero"/>
		<path d="M4.44 13.33L5.55 13.33L5.55 14.44L4.44 14.44L4.44 13.33Z" fill="#000000" fill-opacity="1.000000" fill-rule="nonzero"/>
		<path d="M7.77 13.33L8.88 13.33L8.88 14.44L7.77 14.44L7.77 13.33Z" fill="#000000" fill-opacity="1.000000" fill-rule="nonzero"/>
		<path d="M11.11 13.33L12.22 13.33L12.22 14.44L11.11 14.44L11.11 13.33Z" fill="#000000" fill-opacity="1.000000" fill-rule="nonzero"/>
		<path d="M14.44 13.33L15.55 13.33L15.55 14.44L14.44 14.44L14.44 13.33Z" fill="#000000" fill-opacity="1.000000" fill-rule="nonzero"/>
		<path d="M5.55 5.55C5.7 5.55 5.84 5.49 5.94 5.39C6.05 5.28 6.11 5.14 6.11 5L6.11 1.66C6.11 1.51 6.05 1.37 5.94 1.27C5.84 1.16 5.7 1.11 5.55 1.11C5.4 1.11 5.26 1.16 5.16 1.27C5.05 1.37 5 1.51 5 1.66L5 5C5 5.14 5.05 5.28 5.16 5.39C5.26 5.49 5.4 5.55 5.55 5.55Z" fill="#000000" fill-opacity="1.000000" fill-rule="nonzero"/>
		<path d="M14.44 5.55C14.59 5.55 14.73 5.49 14.83 5.39C14.94 5.28 15 5.14 15 5L15 1.66C15 1.51 14.94 1.37 14.83 1.27C14.73 1.16 14.59 1.11 14.44 1.11C14.29 1.11 14.15 1.16 14.05 1.27C13.94 1.37 13.88 1.51 13.88 1.66L13.88 5C13.88 5.14 13.94 5.28 14.05 5.39C14.15 5.49 14.29 5.55 14.44 5.55Z" fill="#000000" fill-opacity="1.000000" fill-rule="nonzero"/>
		<path d="M7.22 3.33L12.77 3.33L12.77 4.44L7.22 4.44L7.22 3.33Z" fill="#000000" fill-opacity="1.000000" fill-rule="nonzero"/>
	</g>
</svg>
