<svg width="20.000000" height="20.000000" viewBox="0 0 20 20" xmlns="http://www.w3.org/2000/svg">
	<defs>
		<clipPath id="clip287_43">
			<rect rx="0.000000" width="19.000000" height="19.000000" transform="translate(0.500000 0.500000)" fill="white" fill-opacity="0"/>
		</clipPath>
	</defs>
	<rect rx="0.000000" width="19.000000" height="19.000000" transform="translate(0.500000 0.500000)" fill="#FFFFFF" fill-opacity="0"/>
	<g clip-path="url(#clip287_43)">
		<path d="M18.4 9.49C16.55 5.59 13.75 3.63 10 3.63C6.24 3.63 3.44 5.59 1.59 9.49C1.52 9.65 1.48 9.82 1.48 10C1.48 10.17 1.52 10.34 1.59 10.5C3.44 14.4 6.24 16.36 10 16.36C13.75 16.36 16.55 14.4 18.4 10.5C18.55 10.18 18.55 9.81 18.4 9.49ZM10 14.96C6.84 14.96 4.54 13.36 2.91 10C4.54 6.63 6.84 5.03 10 5.03C13.15 5.03 15.45 6.63 17.08 10C15.45 13.36 13.15 14.96 10 14.96ZM9.92 6.56C8.02 6.56 6.48 8.1 6.48 10C6.48 11.89 8.02 13.43 9.92 13.43C11.82 13.43 13.35 11.89 13.35 10C13.35 8.1 11.82 6.56 9.92 6.56ZM9.92 12.18C8.71 12.18 7.73 11.2 7.73 10C7.73 8.79 8.71 7.81 9.92 7.81C11.13 7.81 12.1 8.79 12.1 10C12.1 11.2 11.13 12.18 9.92 12.18Z" fill="#000000" fill-opacity="1.000000" fill-rule="nonzero"/>
	</g>
</svg>
