<svg width="20" height="20" viewBox="0 0 20 20" xmlns="http://www.w3.org/2000/svg">
	<defs/>
	<path d="M19.77 12.61L17.69 10.74L17.69 8.27C17.68 6.56 16.98 4.91 15.7 3.65C14.42 2.38 12.66 1.58 10.76 1.41L10.76 0L9.23 0L9.23 1.41C7.33 1.58 5.57 2.38 4.29 3.65C3.01 4.91 2.31 6.56 2.3 8.27L2.3 10.74L0.22 12.61C0.08 12.74 4.19e-5 12.92 0 13.1L0 15.17C0 15.35 0.08 15.53 0.22 15.65C0.36 15.78 0.56 15.86 0.76 15.86L6.15 15.86L6.15 16.39C6.13 17.27 6.48 18.12 7.11 18.78C7.75 19.44 8.64 19.87 9.61 19.98C10.15 20.03 10.69 19.97 11.2 19.82C11.71 19.67 12.18 19.43 12.57 19.1C12.97 18.78 13.29 18.39 13.51 17.94C13.73 17.5 13.84 17.03 13.84 16.55L13.84 15.86L19.23 15.86C19.43 15.86 19.63 15.78 19.77 15.65C19.91 15.53 20 15.35 20 15.17L20 13.1C20 12.92 19.91 12.74 19.77 12.61ZM12.3 16.55C12.3 17.1 12.06 17.62 11.63 18.01C11.19 18.4 10.61 18.62 10 18.62C9.38 18.62 8.8 18.4 8.36 18.01C7.93 17.62 7.69 17.1 7.69 16.55L7.69 15.86L12.3 15.86L12.3 16.55ZM18.46 14.48L1.53 14.48L1.53 13.38L3.62 11.52C3.76 11.39 3.84 11.21 3.84 11.03L3.84 8.27C3.84 6.81 4.49 5.4 5.64 4.37C6.8 3.33 8.36 2.75 10 2.75C11.63 2.75 13.19 3.33 14.35 4.37C15.5 5.4 16.15 6.81 16.15 8.27L16.15 11.03C16.15 11.21 16.23 11.39 16.37 11.52L18.46 13.38L18.46 14.48Z" fill="" fill-opacity="1.000000" fill-rule="nonzero"/>
</svg>
