<svg width="22.051594" height="22.040359" viewBox="0 0 22.0516 22.0404" fill="none" xmlns="http://www.w3.org/2000/svg">
	<path d="M11.95 1.63L14.02 7.36C14.09 7.55 14.22 7.71 14.38 7.82C14.55 7.94 14.74 8 14.94 8L20.03 8C20.97 8 21.38 9.17 20.64 9.74L17.02 13C16.86 13.12 16.74 13.29 16.68 13.49C16.62 13.68 16.63 13.89 16.7 14.09L18.02 19.69C18.34 20.59 17.3 21.36 16.51 20.81L11.6 17.69C11.43 17.57 11.23 17.51 11.02 17.51C10.82 17.51 10.61 17.57 10.45 17.69L5.53 20.81C4.74 21.36 3.7 20.59 4.02 19.69L5.34 14.09C5.41 13.89 5.42 13.68 5.36 13.49C5.3 13.29 5.18 13.12 5.02 13L1.4 9.74C0.66 9.17 1.07 8 2.01 8L7.1 8C7.3 8 7.49 7.94 7.66 7.82C7.82 7.71 7.95 7.55 8.02 7.36L10.09 1.63L10.09 1.63C10.41 0.78 11.63 0.78 11.95 1.63Z" stroke="currentColor" stroke-opacity="1.000000" stroke-width="2.000000" stroke-linejoin="round"/>
</svg>
